<?xml version="1.0" encoding="UTF-8"?>
<svg id="Livello_1" xmlns="http://www.w3.org/2000/svg" version="1.1" viewBox="0 0 100 100">
  <!-- Generator: Adobe Illustrator 29.6.0, SVG Export Plug-In . SVG Version: 2.1.1 Build 207)  -->
  <defs>
    <style>
      .st0 {
        fill: #fff;
      }
    </style>
  </defs>
  <path class="st0" d="M79.4,22c.3-.4.2-.9,0-1.3s-.9-.4-1.3-.1l-8.9,6c-1.7,1.2-3.9,1.2-5.7.2-1.8-1.1-2.8-2.9-2.7-5l.7-10.7c0-.5-.3-.9-.7-1-.5-.1-.9,0-1.2.5l-4.7,9.6c-.9,1.9-2.7,3-4.8,3s-3.9-1.1-4.8-3l-4.7-9.6c-.2-.4-.7-.6-1.2-.5s-.8.6-.7,1l.7,10.7c0,2.1-.9,4-2.7,5-1.8,1.1-3.9,1-5.7-.2l-8.9-6c-.4-.3-.9-.2-1.3.1-.3.3-.4.9-.1,1.3l6,8.9c1.2,1.7,1.2,3.9.2,5.7-1.1,1.8-2.9,2.8-5,2.7l-10.7-.7c-.5,0-.9.3-1,.7-.1.5,0,.9.5,1.2l9.6,4.7c1.9.9,3,2.7,3,4.8s-1.1,3.9-3,4.8l-9.6,4.7c-.4.2-.6.7-.5,1.2s.6.8,1,.7l10.7-.7c2.1,0,4,.9,5,2.7,1.1,1.8,1,3.9-.2,5.7l-6,8.9c-.3.4-.2.9.1,1.3s.9.4,1.3,0l8.9-6c1.7-1.2,3.9-1.2,5.7-.2,1.8,1.1,2.8,2.9,2.7,5l-.7,10.7c0,.5.3.9.7,1,.5,0,.9,0,1.2-.5l4.7-9.6c.9-1.9,2.7-3,4.8-3s3.9,1.1,4.8,3l4.7,9.6c.2.3.5.6.9.6s.2,0,.3,0c.5,0,.8-.6.7-1l-.7-10.7c0-2.1.9-4,2.7-5,1.8-1.1,3.9-1,5.7.2l8.9,6c.4.3.9.2,1.3,0,.3-.3.4-.9,0-1.3l-6-8.9c-1.2-1.7-1.2-3.9-.2-5.7,1.1-1.8,2.9-2.8,5-2.7l10.7.7c.5,0,.9-.3,1-.7,0-.5,0-.9-.5-1.2l-9.6-4.7c-1.9-.9-3-2.7-3-4.8s1.1-3.9,3-4.8l9.6-4.7c.4-.2.6-.7.5-1.2s-.6-.8-1-.7l-10.7.7c-2.1,0-4-.9-5-2.7-1.1-1.8-1-3.9.2-5.7l6-8.9h0ZM71.5,37.6c1.4,2.5,4.1,3.9,6.9,3.7l5.6-.4-5.1,2.5c-2.5,1.3-4.1,3.8-4.1,6.6s1.6,5.4,4.1,6.6l5.1,2.5-5.6-.4c-2.8-.2-5.5,1.2-6.9,3.7s-1.3,5.5.3,7.8l3.1,4.7-4.7-3.1c-2.4-1.6-5.3-1.7-7.8-.3-2.5,1.4-3.9,4.1-3.7,6.9l.4,5.6-2.5-5.1c-1.3-2.5-3.8-4.1-6.6-4.1s-5.4,1.6-6.6,4.1l-2.5,5.1.4-5.6c.2-2.8-1.2-5.5-3.7-6.9s-5.4-1.3-7.8.3l-4.7,3.1,3.1-4.7c1.6-2.4,1.7-5.3.3-7.8-1.4-2.5-4.1-3.9-6.9-3.7l-5.6.4,5.1-2.5c2.5-1.3,4.1-3.8,4.1-6.6s-1.6-5.4-4.1-6.6l-5.1-2.5,5.6.4c2.8.2,5.5-1.2,6.9-3.7s1.3-5.5-.3-7.8l-3.1-4.7,4.7,3.1c2.4,1.6,5.3,1.7,7.8.3,2.5-1.4,3.9-4.1,3.7-6.9l-.4-5.6,2.5,5.1h0c1.3,2.5,3.8,4.1,6.6,4.1s5.4-1.6,6.6-4.1l2.5-5.1-.4,5.6c-.2,2.8,1.2,5.5,3.7,6.9,2.5,1.4,5.4,1.3,7.8-.3l4.7-3.1-3.1,4.7c-1.6,2.4-1.7,5.3-.3,7.8Z"/>
  <path class="st0" d="M10.3,11.7l5.5,5.4c.2.2.5.3.7.3s.5,0,.7-.3c.4-.4.4-1,0-1.4l-5.5-5.4c-.4-.4-1-.4-1.4,0s-.4,1,0,1.4Z"/>
  <path class="st0" d="M10.3,89.7c.2.2.5.3.7.3s.5,0,.7-.3l5.5-5.4c.4-.4.4-1,0-1.4s-1-.4-1.4,0l-5.5,5.4c-.4.4-.4,1,0,1.4Z"/>
  <path class="st0" d="M89.7,88.3l-5.5-5.4c-.4-.4-1-.4-1.4,0s-.4,1,0,1.4l5.5,5.4c.2.2.5.3.7.3s.5,0,.7-.3c.4-.4.4-1,0-1.4Z"/>
  <path class="st0" d="M89.7,10.3c-.4-.4-1-.4-1.4,0l-5.5,5.4c-.4.4-.4,1,0,1.4s.5.3.7.3.5,0,.7-.3l5.5-5.4c.4-.4.4-1,0-1.4Z"/>
</svg>