<?xml version="1.0" encoding="UTF-8"?>
<svg id="Livello_1" xmlns="http://www.w3.org/2000/svg" version="1.1" viewBox="0 0 64 64">
  <!-- Generator: Adobe Illustrator 29.6.0, SVG Export Plug-In . SVG Version: 2.1.1 Build 207)  -->
  <defs>
    <style>
      .st0 {
        fill: #fff;
      }
    </style>
  </defs>
  <path class="st0" d="M32,26.6c-2.8,0-5,2.2-5,5s2.2,5,5,5,5-2.2,5-5-2.2-5-5-5ZM32,34.6c-1.7,0-3-1.3-3-3s1.3-3,3-3,3,1.3,3,3-1.3,3-3,3ZM44,27.6h0c-2-3.8-6.7-6.3-12-6.3s-13,4.6-13,10.3,5.8,10.3,13,10.3,10-2.5,12-6.3h0c2.2,0,4-1.8,4-4s-1.8-4-4-4h0ZM32,39.9c-6.1,0-11-3.7-11-8.3s4.9-8.3,11-8.3,8.2,1.9,10,4.9c-1.9,1.1-2.6,3.5-1.5,5.4.4.6.9,1.1,1.5,1.5-1.8,3-5.6,4.9-10,4.9h0ZM44,33.6c-1.1,0-2-.9-2-2s.9-2,2-2,2,.9,2,2-.9,2-2,2ZM32,15.9c-5.2,0-10.3,1.5-14.6,4.5-1.8-1.3-4.3-.9-5.6.8-1.2,1.6-1,3.8.4,5.2-.8,1.6-1.2,3.4-1.2,5.2,0,8.6,9.4,15.7,21,15.7s21-7,21-15.7-9.4-15.7-21-15.7ZM15,21.6c1.1,0,2,.9,2,2s-.9,2-2,2-2-.9-2-2,.9-2,2-2ZM32,45.3c-10.5,0-19-6.1-19-13.7s.3-2.9.9-4.2c.3.1.7.2,1.1.2,2.2,0,4-1.8,4-4s-.1-1.2-.4-1.7c3.9-2.7,8.6-4.1,13.4-4,10.5,0,19,6.1,19,13.7s-8.5,13.7-19,13.7ZM32,10.6C16,10.6,3,20,3,31.6s4.9,13.6,13,17.5v.5c0,2.2,1.8,4,4,4s2.7-.7,3.4-2c2.8.6,5.7.9,8.6.9,16,0,29-9.4,29-21s-13-21-29-21h0ZM20,51.6c-1.1,0-2-.9-2-2s.9-2,2-2,2,.9,2,2-.9,2-2,2ZM32,50.6c-2.7,0-5.4-.3-8-.9h0c0-2.3-1.8-4.1-4-4.1s-2.5.6-3.3,1.7c-7.4-3.6-11.8-9.4-11.8-15.7,0-10.5,12.1-19,27-19s27,8.5,27,19-12.1,19-27,19h0Z"/>
</svg>