<?xml version="1.0" encoding="UTF-8"?>
<svg id="Livello_1" xmlns="http://www.w3.org/2000/svg" version="1.1" viewBox="0 0 100 125">
  <!-- Generator: Adobe Illustrator 29.6.0, SVG Export Plug-In . SVG Version: 2.1.1 Build 207)  -->
  <defs>
    <style>
      .st0 {
        fill: #fff;
      }
    </style>
  </defs>
  <path class="st0" d="M54.3,29.1l-3.3-18.2c0-.5-.5-.8-1-.8s-.9.3-1,.8l-3.3,18.2c-.5,2.6-2,4.8-4.3,6.1-2.2,1.3-4.9,1.5-7.4.7l-17.5-6.2c-.5-.2-1,0-1.2.4-.2.4-.1.9.2,1.3l14.1,12c2,1.7,3.1,4.1,3.1,6.7s-1.1,5-3.1,6.7l-14.1,12c-.4.3-.5.8-.2,1.3.2.4.7.6,1.2.4l17.5-6.2c2.4-.9,5.1-.6,7.4.7s3.8,3.5,4.3,6.1l3.3,18.2c0,.5.5.8,1,.8s.9-.3,1-.8l3.3-18.2c.5-2.6,2-4.8,4.3-6.1,2.2-1.3,4.9-1.5,7.4-.7l17.5,6.2c.5.2,1,0,1.2-.4.2-.4.1-.9-.2-1.3l-14.1-12c-2-1.7-3.1-4.1-3.1-6.7s1.1-5,3.1-6.7l14.1-12c.4-.3.5-.8.2-1.3s-.7-.6-1.2-.4l-17.5,6.2c-2.4.9-5.1.6-7.4-.7s-3.8-3.5-4.3-6.1ZM66.6,37.7l12.3-4.4-10,8.5c-2.4,2.1-3.8,5.1-3.8,8.2s1.4,6.2,3.8,8.2l10,8.5-12.3-4.4c-3-1.1-6.3-.8-9.1.8-2.8,1.6-4.7,4.3-5.2,7.4l-2.4,12.9-2.4-12.9c-.6-3.1-2.5-5.8-5.2-7.4-1.7-1-3.5-1.5-5.4-1.5s-2.5.2-3.6.6l-12.3,4.4,10-8.5c2.4-2.1,3.8-5.1,3.8-8.2s-1.4-6.2-3.8-8.2l-10-8.5,12.3,4.4c3,1.1,6.3.8,9.1-.8,2.8-1.6,4.7-4.3,5.2-7.4l2.4-12.9,2.4,12.9c.6,3.1,2.5,5.8,5.2,7.4,2.8,1.6,6.1,1.9,9.1.8Z"/>
  <path class="st0" d="M53.4,44.2c-.6-.4-1.1-1-1.2-1.7l-1.2-6.5c0-.5-.5-.8-1-.8s-.9.3-1,.8l-1.2,6.5c-.1.7-.6,1.3-1.2,1.7-.6.4-1.4.4-2.1.2l-6.2-2.2c-.5-.2-1,0-1.2.4-.2.4-.1.9.2,1.3l5,4.3c.6.5.9,1.2.9,1.9s-.3,1.4-.9,1.9l-5,4.3c-.4.3-.5.8-.2,1.3s.7.6,1.2.4l6.2-2.2c.7-.2,1.4-.2,2.1.2.6.4,1.1,1,1.2,1.7l1.2,6.5c0,.5.5.8,1,.8s.9-.3,1-.8l1.2-6.5c.1-.7.6-1.3,1.2-1.7.6-.4,1.4-.4,2.1-.2l6.2,2.2c.5.2,1,0,1.2-.4s.1-.9-.2-1.3l-5-4.3c-.6-.5-.9-1.2-.9-1.9s.3-1.4.9-1.9l5-4.3c.4-.3.5-.8.2-1.3s-.7-.6-1.2-.4l-6.2,2.2c-.7.2-1.4.2-2.1-.2ZM57.2,45.9l-.8.7c-1,.9-1.6,2.1-1.6,3.4s.6,2.6,1.6,3.4l.8.7-1-.4c-1.2-.4-2.6-.3-3.7.3-1.1.7-1.9,1.8-2.2,3.1l-.2,1.1-.2-1.1c-.2-1.3-1-2.4-2.2-3.1-.7-.4-1.5-.6-2.2-.6s-1,0-1.5.3l-1,.4.8-.7c1-.9,1.6-2.1,1.6-3.4s-.6-2.6-1.6-3.4l-.8-.7,1,.4c1.2.4,2.6.3,3.7-.3,1.1-.7,1.9-1.8,2.2-3.1l.2-1.1.2,1.1c.2,1.3,1,2.4,2.2,3.1,1.1.7,2.5.8,3.7.3l1-.4Z"/>
  <path class="st0" d="M89,49h-16.3c-.6,0-1,.4-1,1s.4,1,1,1h16.3c.6,0,1-.4,1-1s-.4-1-1-1Z"/>
  <path class="st0" d="M60.8,68.8c-.5.3-.6.9-.4,1.4l8.2,14.1c.2.3.5.5.9.5s.3,0,.5-.1c.5-.3.6-.9.4-1.4l-8.2-14.1c-.3-.5-.9-.6-1.4-.4Z"/>
  <path class="st0" d="M37.8,69.1l-8.2,14.1c-.3.5-.1,1.1.4,1.4.2,0,.3.1.5.1.3,0,.7-.2.9-.5l8.2-14.1c.3-.5.1-1.1-.4-1.4-.5-.3-1.1-.1-1.4.4Z"/>
  <path class="st0" d="M11,51h16.3c.6,0,1-.4,1-1s-.4-1-1-1H11c-.6,0-1,.4-1,1s.4,1,1,1Z"/>
  <path class="st0" d="M38.7,31.4c.2,0,.3,0,.5-.1.5-.3.6-.9.4-1.4l-8.2-14.1c-.3-.5-.9-.6-1.4-.4-.5.3-.6.9-.4,1.4l8.2,14.1c.2.3.5.5.9.5Z"/>
  <path class="st0" d="M61.3,31.4c.3,0,.7-.2.9-.5l8.2-14.1c.3-.5.1-1.1-.4-1.4-.5-.3-1.1-.1-1.4.4l-8.2,14.1c-.3.5-.1,1.1.4,1.4.2,0,.3.1.5.1Z"/>
</svg>