<?xml version="1.0" encoding="UTF-8"?>
<svg id="Livello_1" xmlns="http://www.w3.org/2000/svg" version="1.1" viewBox="0 0 36.9 36.9">
  <!-- Generator: Adobe Illustrator 29.6.0, SVG Export Plug-In . SVG Version: 2.1.1 Build 207)  -->
  <defs>
    <style>
      .st0 {
        fill: #fff;
      }
    </style>
  </defs>
  <path class="st0" d="M16.7,13.8c2.4-.9,5,.2,6.2,2.5,0,.1.2.2.3.1.1,0,.2-.2.1-.3-1.2-2.5-4.1-3.7-6.8-2.7-2.6,1-4.1,3.7-3.4,6.5,0,.1.1.2.2.2s0,0,0,0c.1,0,.2-.2.2-.3-.6-2.5.7-5,3.1-5.9Z"/>
  <path class="st0" d="M32.2,12.2c-.1,0-.2.1-.2.3,0,.1.1.2.3.2,1.4,0,1.5.2,1.5.2,0,0,.2.7-3.9,2.8-2.8,1.5-6.6,3.1-10.7,4.6-4.8,1.8-9.4,3.1-12.5,3.6-.1,0-.2.2-.2.3,0,.1.1.2.2.2s0,0,0,0c1-.2,2.2-.4,3.4-.8,1.8,2.9,5,4.6,8.3,4.6s2.3-.2,3.3-.6c3.8-1.4,6.4-5.1,6.5-9.2,0-.1-.1-.3-.2-.3h0c-.1,0-.2.1-.2.2,0,3.9-2.5,7.4-6.1,8.7-4.1,1.5-8.6,0-11-3.7,1.3-.3,2.6-.7,4-1.2,1,1,2.4,1.5,3.8,1.5s1.3-.1,1.9-.3c2-.7,3.3-2.5,3.6-4.5.6-.2,1.1-.5,1.6-.7,0,3-1.8,5.7-4.6,6.7-2.4.9-5.2.4-7.1-1.4-.1,0-.3,0-.4,0,0,.1,0,.3,0,.4,1.4,1.3,3.2,1.9,5,1.9.9,0,1.7-.1,2.6-.5,3.1-1.1,5.1-4.2,5-7.4,1.5-.7,2.9-1.3,4.1-1.9,4.5-2.4,4.2-3.2,4.1-3.5-.2-.4-.8-.6-2-.5ZM20.1,23.2c-1.7.6-3.6.2-4.9-.9,1.3-.4,2.7-.9,4.1-1.4,1.4-.5,2.7-1,4-1.6-.3,1.8-1.5,3.2-3.2,3.9Z"/>
  <path class="st0" d="M4.7,24.8c.1,0,.2-.1.2-.3,0-.1-.1-.3-.3-.2-1.4,0-1.5-.2-1.5-.2,0,0-.2-.7,3.6-2.7,1.4-.7,2.3-2.2,2.3-3.7.1-2.7,1.3-6.3,6.1-8,4.7-1.7,7.9.3,9.8,2.3,1.1,1.1,2.6,1.6,4.1,1.3.4,0,.7-.1,1-.2.1,0,.2-.2.2-.3,0-.1-.2-.2-.3-.2-.3,0-.7.1-1,.2-1.3.3-2.7-.2-3.7-1.1-1.6-1.7-5.2-4.3-10.4-2.4-5.3,1.9-6.3,6.1-6.5,8.5,0,1.4-.9,2.6-2.1,3.3-4.2,2.3-3.9,3-3.8,3.3.1.4.6.6,1.5.6s.3,0,.5,0Z"/>
  <path class="st0" d="M19.8,11.1c-1.3-.2-2.7-.1-3.9.3-3.9,1.4-4.8,4.5-4.9,6.8,0,1.4-.8,2.5-2,3.2-.8.4-1,.7-.9.9,0,.1.2.2.5.2,1.6,0,6.9-1.8,10.2-3,3.3-1.2,9.7-3.7,10-4.5,0,0,0-.2,0-.2-.1-.3-.5-.3-1.2-.1-1.3.3-2.6-.2-3.6-1.2-.7-.7-1.5-1.3-2.4-1.8-.1,0-.3,0-.3.1,0,.1,0,.3.1.3.9.4,1.6.9,2.3,1.6,1,1.1,2.5,1.6,4,1.3.1,0,.2,0,.3,0-1.1.6-4.4,2.1-9.4,3.9-5,1.8-8.5,2.8-9.7,3,0,0,.2-.1.3-.2,1.4-.7,2.2-2.1,2.3-3.6,0-2.2.9-5,4.6-6.3,1.2-.4,2.5-.5,3.7-.3.1,0,.3,0,.3-.2,0-.1,0-.3-.2-.3Z"/>
  <path class="st0" d="M9.4,11.1c-1.1,1.1-1.9,2.6-2.1,4.2,0,.3.4.4.5.1.3-1.5,1-2.9,2-3.9.2-.2-.1-.6-.4-.4Z"/>
  <path class="st0" d="M29.1,21.5c-.3,1.2-.8,2.2-1.4,3.3-.2.3.3.5.4.3.7-1,1.2-2.2,1.5-3.4,0-.3-.4-.4-.5-.1Z"/>
</svg>