<?xml version="1.0" encoding="UTF-8"?>
<svg id="Livello_1" xmlns="http://www.w3.org/2000/svg" version="1.1" viewBox="0 0 110 110">
  <!-- Generator: Adobe Illustrator 29.6.0, SVG Export Plug-In . SVG Version: 2.1.1 Build 207)  -->
  <defs>
    <style>
      .st0 {
        fill: #fff;
      }
    </style>
  </defs>
  <path class="st0" d="M96.9,13.2c-4.3-4.3-10.3-6.4-16.2-5.7-4.7.6-9.3,2.9-12.5,6.6l-1.4-1.4c-1.2-1.2-2.7-1.8-4.4-1.8s-3.2.7-4.4,1.8l-14.1,14.1c-4.7,1.7-9.3,4.5-14,8.3h0l-4.1,3.5c-2.5,2-2.8,5.7-.8,8.2.1.2.2.3.4.4,1.1,1.1,2.6,1.7,4.1,1.7s1.8-.2,2.6-.6l2.6,2.6-17.3,17.3c-2-1.4-4.8-1.2-6.6.6l-1.7,1.7c-2,2-2,5.3,0,7.3l7.9,7.9c.7.7,1.6,1.1,2.5,1.1s1.8-.3,2.5-1.1l3.9-3.9h0l12.8-12.8c.7-.7,1.8-.6,2.4,0,.7.7.7,1.8,0,2.4l-12.8,12.8h0l-3.9,3.9c-1.4,1.4-1.4,3.7,0,5.1l7.9,7.9c1,1,2.3,1.5,3.7,1.5s2.7-.5,3.7-1.5l1.7-1.7c1-1,1.5-2.3,1.5-3.7s-.3-2.1-.9-2.9l17.3-17.3,2.4,2.4h0c-1.1,2.3-.7,5,1.1,6.8,0,0,.3.3.4.4,1.1.9,2.4,1.3,3.7,1.3s3.3-.7,4.5-2.1l3.4-4.1h0c4.2-5.2,7.2-10.4,8.8-15.5l13.1-13.1c1.2-1.2,1.8-2.7,1.8-4.4s-.7-3.2-1.8-4.4l-.9-.9c.4-.3.8-.7,1.1-1,3-3,5-7.1,5.5-11.6.7-6-1.4-11.9-5.7-16.2h0ZM59.4,14.1c.8-.8,1.9-1.3,3-1.3s2.2.5,3,1.3l1.6,1.6c-1.8,2.7-2.8,5.9-2.9,9.7-1-.1-2,0-3,.3-4.3-1-8.8-1-13.3,0l11.6-11.5h0ZM66.1,30.6c.5.9,1.1,1.7,1.7,2.6,0,0,0,0,0,.2.6.8,1.2,1.7,1.9,2.5h0c.7.8,1.4,1.6,2.1,2.3s1.5,1.4,2.3,2.1h0c.8.7,1.6,1.3,2.5,1.9,0,0,0,0,.2,0,.8.6,1.7,1.1,2.6,1.7,0,0,.2,0,.3.2.9.5,1.8,1,2.7,1.4,0,0,0,0,.2,0,.2.8.2,1.7,0,2.5-5,1.6-8.1,5-9.4,10.5l-14.1,14.1-22-22,14.1-14.1c5.5-1.2,8.9-4.3,10.5-9.4.8-.2,1.7-.2,2.5,0,0,0,0,0,0,.2.5.9.9,1.8,1.4,2.7,0,0,0,.2.2.3h0ZM82,64.1c-1.5,4.7-4.1,9.5-7.9,14.3l-6.3-5.2c3.2-4.8,5.7-9.3,7.3-13.4v-.2q0,0,0,0c1-4.9,3.4-7.7,7.6-9.2.5,2.3.6,4.7.5,7.1l-3.3-1c-.5-.2-1.1,0-1.2.7-.2.5,0,1.1.7,1.2l3.6,1.1c0,.4,0,.7-.2,1.1l-2.3-.7c-.5-.2-1.1,0-1.2.7-.2.5,0,1.1.7,1.2l2.5.7c0,.5-.3,1.1-.4,1.6v.2h0v-.2ZM51.4,29.8l-5.3,1.3-.6-2.7c1.8-.6,3.6-1,5.3-1.3l.6,2.7ZM43.6,29.1l.7,3.4c0,.3.2.5.4.6.2,0,.3.2.5.2h.2l7.2-1.8c.5,0,.8-.6.7-1.2l-.7-3.4c2.4-.2,4.8,0,7.2.5-1.5,4.2-4.3,6.6-9.2,7.6h-.2c-4.1,1.7-8.7,4.1-13.4,7.3l-3.2-3.8-2-2.4c3.9-3.1,7.9-5.5,11.8-7h0ZM26.6,45.9s-.2-.2-.2-.3c-1.4-1.7-1.1-4.1.5-5.4l3.5-2.9v.2c.1,0,5.1,6,5.1,6-1.3.9-2.5,1.8-3.8,2.8-1.5,1.1-3.7,1-5.1-.4h0ZM33.6,47.3c1.3-1,2.6-1.9,3.9-2.8,3.1-2.1,6-3.9,8.8-5.3l-10.4,10.4s-2.3-2.3-2.3-2.3ZM20.6,84.4c-.6.6-1.7.6-2.3,0l-7.9-7.9c-1.3-1.3-1.3-3.3,0-4.6l1.7-1.7c.6-.6,1.5-1,2.3-1s1.7.3,2.3.9h0l7.9,7.9c.7.7.7,1.7,0,2.3h0l-3.9,4h-.1ZM39.9,98.2l-1.7,1.7c-1.3,1.3-3.3,1.3-4.6,0l-7.9-7.9c-.7-.7-.7-1.7,0-2.3l3.9-3.9c.3-.3.7-.5,1.2-.5s.8.2,1.2.5l7.9,7.9h0c.6.6.9,1.4.9,2.3s-.3,1.7-.9,2.3h0ZM40.6,91.6l-7.2-7.2c-.4-.4-.9-.7-1.5-.9l2.8-2.8,4.9,4.9c.2.2.4.3.7.3s.5,0,.7-.3c.4-.4.4-1,0-1.4l-4.9-4.9,2.7-2.7,1.9,1.9c.2.2.4.3.7.3s.5,0,.7-.3c.4-.4.4-1,0-1.4l-1.9-1.9,2.3-2.3c1.4-1.4,1.4-3.7,0-5.2-1.4-1.4-3.8-1.4-5.2,0l-4.3,4.3-3.9-3.9c-.4-.4-1-.4-1.4,0s-.4,1,0,1.4l3.9,3.9-4.9,4.9c-.2-.5-.5-1-.9-1.5l-7.2-7.2,17.3-17.3,22,22-17.2,17.3h-.1ZM60.7,74.3l10.4-10.4c-1.5,2.8-3.3,5.8-5.4,8.9-.9,1.3-1.8,2.6-2.8,3.9l-2.3-2.3h0ZM70,83.3c-1.4,1.7-3.8,1.9-5.5.5,0,0-.2-.2-.3-.2-1.3-1.4-1.5-3.5-.3-5.1,1-1.3,1.9-2.5,2.8-3.8l2.7,2.2,3.5,2.9s-2.9,3.5-2.9,3.5ZM95.6,44.3c.8.8,1.3,1.9,1.3,3s-.4,2.2-1.3,3l-10.8,10.8c.8-4.1.7-8.1-.2-12,.3-1,.4-2,.3-3,3.5,0,6.9-1,9.7-2.9l1.1,1.1h0ZM100.7,29.2c-.5,4-2.2,7.7-4.9,10.4-3.2,3.2-7.3,4.7-12,4.5h0c-.9-.5-1.9-.9-2.8-1.4h0c-.9-.5-1.8-1.1-2.6-1.7h0c-.8-.6-1.7-1.2-2.5-1.9h0c-.8-.7-1.6-1.4-2.3-2.1-.7-.7-1.4-1.5-2.1-2.3h0c-.7-.8-1.3-1.6-1.9-2.5h0c-.6-.8-1.1-1.7-1.7-2.6h0c-.5-1-1-1.9-1.4-2.9h0c-.4-9.9,7.1-16,14.8-17,5.4-.7,10.7,1.2,14.6,5.1,3.9,3.9,5.8,9.2,5.2,14.6h0l-.2-.2Z"/>
  <path class="st0" d="M81.3,12.8c-5.7.7-11.8,4.9-11.9,12.5,0,.2,0,.3,0,.5,1.7,3.3,3.8,6.3,6.2,8.7,2.5,2.5,5.4,4.6,8.7,6.2,0,0,.3,0,.4,0h0c4.2,0,7-2,8.6-3.6,2.2-2.2,3.6-5.2,4-8.4.5-4.4-1-8.7-4.2-11.8-3.2-3.2-7.5-4.7-11.9-4.2h0ZM95.5,28.6c-.3,2.8-1.5,5.4-3.4,7.3-1.3,1.3-3.6,2.9-7,3-3-1.6-5.7-3.5-8-5.8s-4.2-5-5.8-8c.2-6.3,5.3-9.8,10.2-10.4,3.8-.5,7.6.9,10.3,3.6,2.7,2.7,4,6.5,3.6,10.3h.1Z"/>
  <path class="st0" d="M90.3,28c-.2,1.7-.9,3.1-1.9,4.2-.7.7-1.6,1.2-2.6,1.3-.5,0-.9.6-.8,1.1,0,.5.5.8,1,.8s0,0,.2,0c1.4-.3,2.6-.9,3.6-1.9,1.3-1.3,2.2-3.2,2.5-5.3,0-.5-.3-1-.9-1.1-.5,0-1,.3-1.1.9h0Z"/>
  <path class="st0" d="M60.8,37.6c-.7-.7-1.7-1.1-2.8-1.1s-2,.4-2.8,1.1l-10.3,10.3c-1.5,1.5-1.5,4,0,5.5l11.6,11.6c.8.8,1.8,1.1,2.8,1.1s2-.4,2.8-1.1l10.3-10.3c.7-.7,1.1-1.7,1.1-2.8s-.4-2-1.1-2.8l-11.6-11.6h0ZM71,53.4l-10.3,10.3c-.8.8-2,.8-2.8,0l-11.6-11.6c-.8-.8-.8-2,0-2.8l4.9-4.9,4.7,4.7c.2.2.4.3.7.3s.5,0,.7-.3c.4-.4.4-1,0-1.4l-4.7-4.7,2-2,8.8,8.8c.2.2.4.3.7.3s.5,0,.7-.3c.4-.4.4-1,0-1.4l-8.8-8.8.7-.7c.4-.4.9-.6,1.4-.6s1,.2,1.4.6l11.6,11.6c.4.4.6.9.6,1.4s-.2,1-.6,1.4h-.1Z"/>
  <path class="st0" d="M57.3,55.2c-1.2,1.2-1.2,3,0,4.2.6.6,1.3.9,2.1.9s1.5-.3,2.1-.9c1.2-1.2,1.2-3,0-4.2s-3.1-1.1-4.2,0h0ZM60.1,58c-.4.4-1,.4-1.4,0s-.4-1,0-1.4.4-.3.7-.3.5,0,.7.3c.4.4.4,1,0,1.4Z"/>
  <path class="st0" d="M64.7,35.2c2.1,4.6,5.2,7.7,9.3,9.3h.3c.4,0,.8-.2.9-.6.2-.5,0-1.1-.6-1.3-3.6-1.4-6.3-4.1-8.2-8.3-.2-.5-.8-.7-1.3-.5s-.7.8-.5,1.3h0Z"/>
  <path class="st0" d="M82,86c-.4-.4-1-.4-1.4,0l-7,7c-.4.4-.4,1,0,1.4s.4.3.7.3.5,0,.7-.3l7-7c.4-.4.4-1,0-1.4Z"/>
  <path class="st0" d="M100.4,76.8l-4.8,4.8c-.4.4-.4,1,0,1.4s.4.3.7.3.5,0,.7-.3l4.8-4.8c.4-.4.4-1,0-1.4s-1-.4-1.4,0h0Z"/>
  <path class="st0" d="M91.9,85.3l-14.8,14.8c-.4.4-.4,1,0,1.4s.4.3.7.3.5,0,.7-.3l14.8-14.8c.4-.4.4-1,0-1.4s-1-.4-1.4,0h0Z"/>
  <path class="st0" d="M8.4,37.8c.2,0,.5,0,.7-.3l7-7c.4-.4.4-1,0-1.4s-1-.4-1.4,0l-7,7.1c-.4.4-.4,1,0,1.4.2.2.4.3.7.3h0Z"/>
  <path class="st0" d="M30.4,26.4c.2,0,.5,0,.7-.3l4.8-4.8c.4-.4.4-1,0-1.4s-1-.4-1.4,0l-4.8,4.8c-.4.4-.4,1,0,1.4s.5.3.7.3Z"/>
  <path class="st0" d="M11.2,44.6c.2.2.4.3.7.3s.5,0,.7-.3l14.8-14.8c.4-.4.4-1,0-1.4s-1-.4-1.4,0l-14.8,14.8c-.4.4-.4,1,0,1.4Z"/>
</svg>