<?xml version="1.0" encoding="UTF-8"?>
<svg id="Livello_1" xmlns="http://www.w3.org/2000/svg" version="1.1" viewBox="0 0 48 60">
  <!-- Generator: Adobe Illustrator 29.6.0, SVG Export Plug-In . SVG Version: 2.1.1 Build 207)  -->
  <defs>
    <style>
      .st0 {
        fill: #fff;
      }
    </style>
  </defs>
  <path class="st0" d="M18.1,31.2c-1.4,1-2.2,2.6-2.2,4.3s.8,3.3,2.2,4.3c.2.1.4.2.6.2.3,0,.6-.2.8-.4.1-.2.2-.5.2-.8s-.2-.5-.4-.6c-.9-.6-1.4-1.6-1.4-2.6s.5-2,1.4-2.7c1.1-.7,1.7-1.9,1.7-3.2s-.6-2.5-1.7-3.2c-.9-.6-1.4-1.6-1.4-2.6s.5-2,1.4-2.6c.2-.1.4-.4.4-.6,0-.3,0-.5-.2-.8-.3-.4-.9-.6-1.4-.2-1.4,1-2.2,2.6-2.2,4.3s.8,3.3,2.2,4.3c.5.4.8,1,.8,1.6,0,.6-.3,1.2-.9,1.6Z"/>
  <path class="st0" d="M23.4,31.2c-1.4,1-2.2,2.6-2.2,4.3s.8,3.3,2.2,4.3c.2.1.4.2.6.2.3,0,.6-.2.8-.4.2-.2.2-.5.2-.8s-.2-.5-.4-.6c-.9-.6-1.4-1.6-1.4-2.6s.5-2,1.4-2.7c1.1-.7,1.7-1.9,1.7-3.2s-.6-2.5-1.7-3.2c-.9-.6-1.4-1.6-1.4-2.6s.5-2,1.4-2.6c.2-.2.4-.4.4-.6,0-.3,0-.5-.2-.8-.3-.4-.9-.6-1.4-.2-1.4,1-2.2,2.6-2.2,4.3s.8,3.3,2.2,4.3c.5.4.8,1,.8,1.6s-.3,1.2-.9,1.6Z"/>
  <path class="st0" d="M28.7,31.2c-1.4,1-2.2,2.6-2.2,4.3s.8,3.3,2.2,4.3c.2.1.4.2.6.2.3,0,.6-.2.8-.4.3-.5.2-1.1-.2-1.4-.9-.6-1.4-1.6-1.4-2.6s.5-2,1.4-2.7c1.1-.7,1.7-1.9,1.7-3.2s-.6-2.5-1.7-3.2c-.9-.6-1.4-1.6-1.4-2.6s.5-2,1.4-2.6c.5-.3.5-.9.2-1.4s-.9-.6-1.4-.2c-1.4,1-2.2,2.6-2.2,4.3s.8,3.3,2.2,4.3c.5.4.8,1,.8,1.6,0,.6-.3,1.2-.9,1.6Z"/>
  <path class="st0" d="M35.3,41.6H12.2c-.6,0-1,.5-1,1s.4,1,1,1h23.1c.5,0,1-.5,1-1s-.4-1-1-1Z"/>
</svg>