<?xml version="1.0" encoding="UTF-8"?>
<svg id="Livello_1" xmlns="http://www.w3.org/2000/svg" xmlns:serif="http://www.serif.com/" version="1.1" viewBox="0 0 48 48">
  <!-- Generator: Adobe Illustrator 29.6.0, SVG Export Plug-In . SVG Version: 2.1.1 Build 207)  -->
  <defs>
    <style>
      .st0 {
        fill: #fff;
        fill-rule: evenodd;
      }
    </style>
  </defs>
  <path class="st0" d="M24,1C11.3,1,1,11.3,1,24s10.3,23,23,23,23-10.3,23-23S36.7,1,24,1ZM24,3c11.6,0,21,9.4,21,21s-9.4,21-21,21S3,35.6,3,24,12.4,3,24,3Z"/>
  <path class="st0" d="M6,25h2c.6,0,1-.4,1-1s-.4-1-1-1h-2c-.6,0-1,.4-1,1s.4,1,1,1Z"/>
  <path class="st0" d="M12,37.4l1.4-1.4c.4-.4.4-1,0-1.4s-1-.4-1.4,0l-1.4,1.4c-.4.4-.4,1,0,1.4s1,.4,1.4,0Z"/>
  <path class="st0" d="M25,42v-2c0-.6-.4-1-1-1s-1,.4-1,1v2c0,.6.4,1,1,1s1-.4,1-1Z"/>
  <path class="st0" d="M37.4,36l-1.4-1.4c-.4-.4-1-.4-1.4,0s-.4,1,0,1.4l1.4,1.4c.4.4,1,.4,1.4,0s.4-1,0-1.4Z"/>
  <path class="st0" d="M42,23h-2c-.6,0-1,.4-1,1s.4,1,1,1h2c.6,0,1-.4,1-1s-.4-1-1-1Z"/>
  <path class="st0" d="M36,10.6l-1.4,1.4c-.4.4-.4,1,0,1.4s1,.4,1.4,0l1.4-1.4c.4-.4.4-1,0-1.4s-1-.4-1.4,0Z"/>
  <path class="st0" d="M23,6v2c0,.6.4,1,1,1s1-.4,1-1v-2c0-.6-.4-1-1-1s-1,.4-1,1Z"/>
  <path class="st0" d="M10.6,12l1.4,1.4c.4.4,1,.4,1.4,0s.4-1,0-1.4l-1.4-1.4c-.4-.4-1-.4-1.4,0s-.4,1,0,1.4Z"/>
  <path class="st0" d="M23,12v12c0,.3.1.5.3.7l8,8c.4.4,1,.4,1.4,0s.4-1,0-1.4l-7.7-7.7v-11.6c0-.6-.4-1-1-1s-1,.4-1,1Z"/>
</svg>