<?xml version="1.0" encoding="UTF-8"?>
<svg id="Livello_1" xmlns="http://www.w3.org/2000/svg" version="1.1" viewBox="0 0 110 135">
  <!-- Generator: Adobe Illustrator 29.6.0, SVG Export Plug-In . SVG Version: 2.1.1 Build 207)  -->
  <defs>
    <style>
      .st0 {
        fill: #fff;
      }
    </style>
  </defs>
  <path class="st0" d="M84.7,94.9c-7.7,7.3-18.2,11.8-29.6,11.8-25.8,0-46.7-20.9-46.8-46.7,0-.9-1.2-23.6,17.9-35.7,7.7-6.9,17.8-11.1,28.9-11.1,25.8,0,46.7,20.9,46.8,46.7,0,.9,1,19.9-17.1,35h0ZM19,32.4c-10.3,12-9.2,27.5-9.2,27.5h0c0,25,20.2,45.3,45.2,45.3s21.1-4.3,28.6-11.4c0,0,0,0,0,0,8-7.6,13.1-18.4,13.1-30.3,0-20.9-16.9-37.8-37.8-37.8s-33.9,15.2-33.9,33.9,13.5,30.1,30.1,30.1,26.2-11.7,26.2-26.2-10-22.4-22.4-22.4-18.5,8.3-18.5,18.5,6.6,14.7,14.7,14.7,10.8-4.8,10.8-10.8-3.1-6.9-6.9-6.9-3.1,1.4-3.1,3.1,0,.2,0,.3c0,0,0,.2,0,.3,0,2.6-2.1,4.6-4.6,4.6-4.7,0-8.5-3.8-8.5-8.5,0-6.8,5.5-12.4,12.4-12.4s16.2,7.3,16.2,16.2-9,20.1-20.1,20.1-23.9-10.7-23.9-23.9,12.4-27.8,27.8-27.8,31.6,14.2,31.6,31.6-15.9,35.5-35.5,35.5S11.8,78.1,11.8,56.4s2.7-17.1,7.3-24h0ZM100.2,59.9c0-25-20.2-45.2-45.2-45.2s-20.5,4.1-27.9,10.7c0,0,0,0,0,0-8.4,7.6-13.7,18.7-13.7,30.9,0,20.9,16.9,37.8,37.8,37.8s33.9-15.2,33.9-33.9-13.5-30.1-30.1-30.1-26.2,11.7-26.2,26.2,10,22.4,22.4,22.4,18.5-8.3,18.5-18.5-6.6-14.7-14.7-14.7-10.8,4.8-10.8,10.8,3.1,6.9,6.9,6.9,3.1-1.4,3.1-3.1,0-.2,0-.3c0,0,0-.2,0-.3,0-2.6,2.1-4.6,4.6-4.6,4.7,0,8.5,3.8,8.5,8.5,0,6.8-5.5,12.4-12.4,12.4s-16.2-7.3-16.2-16.2,9-20.1,20.1-20.1,23.9,10.7,23.9,23.9-12.4,27.8-27.8,27.8-31.6-14.2-31.6-31.6,15.9-35.5,35.5-35.5,39.4,17.6,39.4,39.4-1.3,11.9-3.5,17.1c6.2-11,5.5-20.6,5.5-20.6,0,0,0,0,0,0h0ZM49.7,53.7c1.8,0,3.3,1.5,3.3,3.3s-1.5,3.3-3.3,3.3-3.3-1.5-3.3-3.3,1.5-3.3,3.3-3.3ZM49.7,55.2c-.9,0-1.7.8-1.7,1.7s.8,1.7,1.7,1.7,1.7-.8,1.7-1.7-.8-1.7-1.7-1.7ZM60.2,59.1c1.8,0,3.3,1.5,3.3,3.3s-1.5,3.3-3.3,3.3-3.3-1.5-3.3-3.3,1.5-3.3,3.3-3.3ZM60.2,60.7c-.9,0-1.7.8-1.7,1.7s.8,1.7,1.7,1.7,1.7-.8,1.7-1.7-.8-1.7-1.7-1.7Z"/>
</svg>